<?xml version="1.0" encoding="utf-8"?>
<!DOCTYPE svg PUBLIC "-//W3C//DTD SVG 1.1//EN" "http://www.w3.org/Graphics/SVG/1.1/DTD/svg11.dtd">
<svg style="width:308px;height:308px;" version="1.1" id="图形" xmlns="http://www.w3.org/2000/svg" xmlns:xlink="http://www.w3.org/1999/xlink" x="0px" y="0px" width="1024px" height="1024px" viewBox="0 0 1024 1024" enable-background="new 0 0 1024 1024" xml:space="preserve">
  <path class="svgpath" data-index="path_0" fill="#272636" d="M924 233.5l-255.5 0 0 62 255.5 0 0-62zm-126 213q-45 0-73 26.25t-31 71.25l204 0q-9-97.5-100-97.5zm8 292.5q31.5 0 61-16t38-43.5l110.5 0q-50 153.5-213.5 153.5-107 0-170.25-66t-63.25-173.5q0-104 65.25-172.75t168.25-68.75q69 0 120.25 34t76.5 89.5 25.25 124q0 8.5-1 23.5l-329 0q0 55.5 28.75 85.75t83.25 30.25zm-667.5-25l148 0q102.5 0 102.5-83.5 0-90-99.5-90l-151 0 0 173.5zm0-268.5l140.5 0q39 0 61.75-18.25t22.75-56.75q0-72-95-72l-130 0 0 147zm-138.5-254.5l297 0q43.5 0 77.5 7t63.25 23.75 45 48.25 15.75 77q0 90.5-86 131.5 57 16 86 57.5t29 102q0 37.5-12.25 68.25t-33 51.75-49.25 35.5-60.5 21-67 6.5l-305.5 0 0-630z" />

</svg>
