<?xml version="1.0" encoding="utf-8"?>
<!DOCTYPE svg PUBLIC "-//W3C//DTD SVG 1.1//EN" "http://www.w3.org/Graphics/SVG/1.1/DTD/svg11.dtd">
<svg style="width:308px;height:308px;" version="1.1" id="图形" xmlns="http://www.w3.org/2000/svg" xmlns:xlink="http://www.w3.org/1999/xlink" x="0px" y="0px" width="1024px" height="1024px" viewBox="0 0 1024 1024" enable-background="new 0 0 1024 1024" xml:space="preserve">
  <path class="svgpath" data-index="path_0" fill="#272636" d="M662.582577 563.03842c103.899348-57.886385 181.297113-176.586834 202.766077-320.104505 17.550725 19.666922 28.547173 45.477774 28.547173 74.100672l0 2.517333 0 384.955512 0 2.459005c0 25.459858-8.774851 48.63979-23.048949 67.308989L662.582577 563.03842 662.582577 563.03842zM514.223644 550.629809c-159.709445 0-291.104007-150.658302-308.302715-344.336396l616.663758 0C805.384957 399.972531 673.990395 550.629809 514.223644 550.629809L514.223644 550.629809zM368.20399 558.415123 154.147776 775.562744c-14.800078-18.904559-24.043602-42.551118-24.043602-68.596308l0-2.459005L130.104173 319.55192l0-2.517333c0-35.411511 16.672728-66.548672 42.12133-86.801948C190.477192 375.446951 265.533632 497.131361 368.20399 558.415123L368.20399 558.415123zM519.54586 601.258906c41.126676 0 80.557734-9.071609 117.237121-25.226544l214.817554 217.851657c-18.545378 14.691607-41.535999 23.821545-66.86692 23.821545L239.208057 817.705564c-24.746614 0-47.26856-8.720615-65.580624-22.768563l219.790822-222.944652C432.555623 590.839603 475.085252 601.258906 519.54586 601.258906L519.54586 601.258906z" />

</svg>
