<?xml version="1.0" encoding="utf-8"?>
<!DOCTYPE svg PUBLIC "-//W3C//DTD SVG 1.1//EN" "http://www.w3.org/Graphics/SVG/1.1/DTD/svg11.dtd">
<svg style="width:308px;height:308px;" version="1.1" id="图形" xmlns="http://www.w3.org/2000/svg" xmlns:xlink="http://www.w3.org/1999/xlink" x="0px" y="0px" width="1024px" height="1024px" viewBox="0 0 1024 1024" enable-background="new 0 0 1024 1024" xml:space="preserve">
  <path class="svgpath" data-index="path_0" fill="#272636" d="M512 1008C238.064 1008 16 785.936 16 512 16 238.064 238.064 16 512 16c273.936 0 496 222.064 496 496C1008 785.936 785.936 1008 512 1008zM512 78C272.304 78 78 272.304 78 512S272.304 946 512 946 946 751.696 946 512 751.696 78 512 78zM822 729.008c-37.6 48.864-65.92-43.6-62-62 3.92-18.4-5.888 24.544-31.008-30.992s-101.04-41.44-62-62c39.04-20.56 3.184-92.912 62-92.992s81.952 7.056 93.008 0c11.04-7.056-17.984-77.392-31.008-62-13.024 15.392-48.816 27.552-62 0-13.184-27.536-20.064 2.128-31.008-31.008-10.928-33.136-54.624-33.264-31.008-62 23.632-28.736 66.24 5.136 62-30.992-4.256-36.144-82.768 23.744 0-93.008 0 0 14.688 9.184 62 62 47.312 52.816 85.488 125.76 93.008 217.008S859.6 680.128 822 729.008zM517.504 808.512c-1.168 23.024-50.896 34.112-70.736 45.44-19.84 11.312-66.832 56.896-70.736 7.568 0 0 8.688-40.64-7.856-53.008-16.544-12.368-78.112-70.288-62.88-90.864 15.232-20.576 40.912-53.808 23.584-60.576-17.328-6.768-42.816-4.88-70.736-37.856-27.92-32.976-85.136-33.184-86.448-75.728-1.312-42.544-35.136-32.32-31.44-83.296s32.432-101.568 55.024-128.736c22.576-27.152 47.664-61.616 47.152-75.712-0.496-14.096 11.872-29.2 23.584-30.288 11.696-1.088 26.72-15.136 39.296-22.72 12.576-7.584-20.256 59.792 7.856 60.576 28.112 0.768 56.96 1.04 55.008 15.136s-22.016 24.336-23.584 37.856c-1.568 13.536 40.976 8.688 70.736 15.136 29.76 6.48 37.136 36.8 39.296 53.008 2.16 16.208-40.288 21.472-39.296 37.856 0.992 16.4-28.528 7.216-47.152 15.152-18.624 7.936-35.664 39.184-31.44 53.008 4.224 13.808-12.72 49.04-7.856 68.144 4.848 19.12-36.816 18.64-31.44 37.856 5.376 19.216 12.608 56.176 47.152 53.008 34.56-3.168 76.848-8.848 86.448 0 9.616 8.864 30.512 31.44 55.024 30.288 24.496-1.152 18.512 10.704 39.296 22.72 20.784 12.016 56.656 20.224 47.168 37.856C563.04 758 518.688 785.488 517.504 808.512z" />

</svg>
