<?xml version="1.0" encoding="utf-8"?>
<!DOCTYPE svg PUBLIC "-//W3C//DTD SVG 1.1//EN" "http://www.w3.org/Graphics/SVG/1.1/DTD/svg11.dtd">
<svg style="width:308px;height:308px;" version="1.1" id="图形" xmlns="http://www.w3.org/2000/svg" xmlns:xlink="http://www.w3.org/1999/xlink" x="0px" y="0px" width="1024px" height="1024px" viewBox="0 0 1024 1024" enable-background="new 0 0 1024 1024" xml:space="preserve">
  <path class="svgpath" data-index="path_0" fill="#272636" d="M512 0c-282.784 0-512 229.216-512 512s229.216 512 512 512 512-229.216 512-512-229.216-512-512-512zM512 102.368c95.136 0 181.632 33.824 251.136 88.256-32.32 27.872-101.76 80.736-207.872 130.88-39.136-69.056-85.184-139.072-140.256-206.304 31.264-7.616 63.424-12.8 96.992-12.8zM337.888 142.56c31.008 42.112 82.016 116.736 135.808 212-114.944 37.696-247.744 38.944-350.496 30.688 35.328-107.264 113.568-194.88 214.688-242.688zM506.496 414.56c14.368 27.488 28.576 57.12 42.56 87.2-214.624 47.072-315.136 187.936-355.328 265.184-56.32-70.112-91.392-158.016-91.392-254.944 0-18.112 1.632-35.808 3.936-53.248 80.736 11.2 223.68 15.552 400.192-44.192zM584.576 584.384c38.304 93.632 71.936 195.072 91.552 302.496-50.304 22.048-105.696 34.752-164.128 34.752-97.184 0-185.248-35.328-255.488-91.808 101.696-141.376 219.552-212.704 328.064-245.44zM749.44 844.672c-5.184-29.312-27.552-138.88-80.576-279.136 124.064-18.368 222.496 5.888 246.624 12.864-18.048 109.504-79.36 204.256-166.048 266.24zM637.952 489.056c-14.88-34.56-30.88-69.888-49.568-106.24 74.112-32.064 152.864-75.872 234.432-134.752 60.736 71.424 98.816 162.816 98.816 263.936-109.248-24.256-202.752-29.568-283.68-22.944z" />

</svg>
