<?xml version="1.0" standalone="no"?><!DOCTYPE svg PUBLIC "-//W3C//DTD SVG 1.1//EN" "http://www.w3.org/Graphics/SVG/1.1/DTD/svg11.dtd"><svg class="icon" width="200px" height="200.00px" viewBox="0 0 1024 1024" version="1.1" xmlns="http://www.w3.org/2000/svg"><path fill="#333" d="M672.622 566.441c110.826-61.745 193.383-188.359 216.284-341.445 18.721 20.978 30.45 48.51 30.45 79.041v415.927c0 27.157-9.36 51.883-24.586 71.796l-222.148-225.319zM514.372 553.205c-170.356 0-310.511-160.702-328.857-367.292h657.775c-18.347 206.591-158.5 367.292-328.918 367.292v0zM358.618 561.509l-228.326 231.625c-15.787-20.165-25.647-45.388-25.647-73.169v-415.927c0-37.773 17.785-70.986 44.929-92.589 19.469 154.895 99.529 284.692 209.043 350.061v0zM520.049 607.21c43.869 0 85.929-9.677 125.053-26.909l229.139 232.375c-19.781 15.671-44.305 25.41-71.325 25.41h-581.894c-26.397 0-50.42-9.302-69.953-24.287l234.444-237.808c41.746 20.103 87.111 31.218 134.537 31.218v0z"  /></svg>