<?xml version="1.0" standalone="no"?><!DOCTYPE svg PUBLIC "-//W3C//DTD SVG 1.1//EN" "http://www.w3.org/Graphics/SVG/1.1/DTD/svg11.dtd"><svg class="icon" width="200px" height="199.80px" viewBox="0 0 1025 1024" version="1.1" xmlns="http://www.w3.org/2000/svg"><path fill="#333" d="M62.056 551.038c0 40.781 3.825 77.681 11.447 110.672s18.197 61.678 31.697 86.034c13.5 24.356 30.656 45.759 51.497 64.266s43.425 33.609 67.781 45.338c24.356 11.728 52.144 21.262 83.391 28.603s63.141 12.459 95.709 15.413c32.569 2.925 68.372 4.387 107.381 4.387 39.319 0 75.263-1.462 107.831-4.387s64.547-8.072 95.934-15.413c31.387-7.341 59.344-16.875 83.841-28.603s47.25-26.831 68.203-45.338c20.981-18.478 38.278-39.909 51.919-64.266s24.272-53.044 31.894-86.034c7.622-33.019 11.447-69.919 11.447-110.672 0-72.759-24.356-135.703-73.041-188.803 2.644-7.031 5.062-15.047 7.256-23.991s4.247-21.713 6.159-38.278c1.913-16.566 1.181-35.719-2.194-57.431s-9.619-43.875-18.703-66.459l-6.609-1.322c-4.697-0.872-12.403-0.647-23.119 0.675s-23.175 3.966-37.406 7.931c-14.231 3.966-32.569 11.587-55.013 22.894s-46.125 25.453-71.072 42.469c-42.834-11.728-101.672-17.606-176.484-17.606-74.531 0-133.2 5.878-176.034 17.606-24.947-17.016-48.769-31.163-71.522-42.469s-40.866-18.928-54.366-22.894c-13.5-3.966-26.1-6.525-37.856-7.706s-19.153-1.547-22.219-1.097c-3.094 0.45-5.512 0.956-7.256 1.547-9.084 22.584-15.328 44.747-18.703 66.459s-4.106 40.866-2.194 57.431c1.913 16.566 3.966 29.334 6.159 38.278s4.613 16.931 7.256 23.991c-48.712 53.1-73.069 116.044-73.069 188.803zM172.531 661.484c0-42.244 19.209-80.972 57.656-116.184 11.447-10.575 24.778-18.563 40.050-23.991s32.484-8.494 51.722-9.253c19.209-0.731 37.631-0.591 55.238 0.45s39.319 2.419 65.138 4.191c25.819 1.772 48.122 2.644 66.909 2.644s41.063-0.872 66.881-2.644c25.819-1.772 47.531-3.15 65.138-4.191s36-1.181 55.238-0.45c19.209 0.731 36.45 3.825 51.722 9.253s28.603 13.416 40.050 23.991c38.447 34.622 57.656 73.35 57.656 116.184 0 25.228-3.15 47.616-9.478 67.106s-14.372 35.859-24.216 49.078c-9.816 13.191-23.456 24.413-40.922 33.666s-34.481 16.369-51.047 21.347c-16.566 4.978-37.856 8.887-63.816 11.672s-49.134 4.472-69.525 5.063c-20.391 0.591-46.294 0.872-77.681 0.872s-57.291-0.281-77.681-0.872c-20.391-0.591-43.566-2.278-69.525-5.063s-47.25-6.666-63.816-11.672c-16.566-4.978-33.581-12.094-51.047-21.347s-31.106-20.475-40.922-33.666c-9.816-13.191-17.887-29.559-24.216-49.078s-9.45-41.878-9.45-67.106zM624.556 652.625c0-46.603 25.172-84.375 56.25-84.375s56.25 37.772 56.25 84.375c0 46.603-25.172 84.375-56.25 84.375s-56.25-37.772-56.25-84.375zM287.056 652.625c0-46.603 25.172-84.375 56.25-84.375s56.25 37.772 56.25 84.375c0 46.603-25.172 84.375-56.25 84.375s-56.25-37.772-56.25-84.375z"  /></svg>