<?xml version="1.0" encoding="utf-8"?>
<!DOCTYPE svg PUBLIC "-//W3C//DTD SVG 1.1//EN" "http://www.w3.org/Graphics/SVG/1.1/DTD/svg11.dtd">
<svg style="width:308px;height:308px;" version="1.1" id="图形" xmlns="http://www.w3.org/2000/svg" xmlns:xlink="http://www.w3.org/1999/xlink" x="0px" y="0px" width="1024px" height="1024px" viewBox="0 0 1024 1024" enable-background="new 0 0 1024 1024" xml:space="preserve">
  <path class="svgpath" data-index="path_0" fill="#272636" d="M0 0 0 0 0 0Z" />
<path class="svgpath" data-index="path_1" fill="#272636" d="M778.24 512c0 147.04-119.232 266.24-266.24 266.24-147.04 0-266.24-119.2-266.24-266.24 0-17.504 1.728-34.624 5.024-51.2l-179.104 0 0 353.888c0 75.968 61.536 137.632 137.632 137.632l605.376 0c75.968 0 137.632-61.6 137.632-137.632l0-353.888-179.04 0c3.232 16.576 4.96 33.696 4.96 51.2zM814.688 71.68l-605.376 0c-76.032 0-137.632 61.632-137.632 137.632l0 149.088 222.912 0c48.192-68.096 127.584-112.64 217.408-112.64s169.216 44.544 217.408 112.64l222.912 0 0-149.088c0-75.968-61.632-137.632-137.632-137.632zM882.016 241.664c0 13.568-11.072 24.576-24.576 24.576l-73.664 0c-13.504 0-24.576-11.072-24.576-24.576l0-73.728c0-13.568 11.104-24.576 24.576-24.576l73.664 0c13.568 0 24.576 11.072 24.576 24.576l0 73.728zM675.84 512c0-90.528-73.376-163.84-163.84-163.84s-163.84 73.312-163.84 163.84 73.376 163.84 163.84 163.84 163.84-73.312 163.84-163.84z" />

</svg>
