<svg xmlns="http://www.w3.org/2000/svg" class="icon" version="1" viewBox="0 0 1024 1024"><path fill="#333" d="M948 504c13 12 20 25 20 40s-4 26-14 36a55 55 0 0 1-40 15c-15-1-28-5-37-13l-27-26-56-52a26261 26261 0 0 1-225-213c-19-18-38-26-57-25-19 0-37 9-55 25a3923 3923 0 0 0-92 85 9735 9735 0 0 1-217 201c-9 8-21 11-36 12s-28-4-39-14a49 49 0 0 1-17-39c0-16 6-28 15-37a2259 2259 0 0 1 101-94 255618 255618 0 0 1 266-249c23-23 48-34 75-35 27 0 49 9 68 27l23 22 42 41a18900 18900 0 0 1 237 229l42 41 23 23zM457 372c15-14 33-22 54-22 21-1 40 6 57 22l17 15 34 32a11504 11504 0 0 0 233 216v173c0 13-5 25-15 36a57 57 0 0 1-41 16H625V719c0-20-10-30-28-30H423c-10 0-17 3-21 9s-6 13-6 21a1676 1676 0 0 1-1 75v66H228c-17 0-31-4-41-12s-16-19-16-34V634a78197 78197 0 0 1 186-171l47-42 35-32 18-17zm0 0z"/></svg>