<?xml version="1.0" standalone="no"?><!DOCTYPE svg PUBLIC "-//W3C//DTD SVG 1.1//EN" "http://www.w3.org/Graphics/SVG/1.1/DTD/svg11.dtd"><svg class="icon" width="200px" height="200.00px" viewBox="0 0 1024 1024" version="1.1" xmlns="http://www.w3.org/2000/svg"><path fill="#333" d="M948.229 503.619c12.728 12.109 19.391 25.435 20.011 39.978s-4.228 26.674-14.543 36.348c-11.511 10.294-24.858 15.141-40 14.565-15.141-0.619-27.25-4.848-36.327-12.75-3.054-2.392-12.301-10.913-27.741-25.435-15.462-14.543-33.935-31.97-55.44-52.237-21.527-20.31-44.549-42.135-69.065-65.435-24.538-23.321-47.709-45.296-69.535-65.905s-40.576-38.462-56.359-53.604c-15.739-15.141-25.734-24.559-29.984-28.169-19.391-17.576-38.462-26.076-57.277-25.456-18.772 0.619-37.245 9.098-55.44 25.456-6.044 5.446-17.405 15.889-34.084 31.351-16.636 15.44-35.899 33.465-57.704 54.073-21.805 20.587-44.848 42.114-69.044 64.517-24.26 22.424-46.684 43.31-67.271 62.723s-38.313 35.899-53.155 49.503c-14.842 13.646-23.769 21.698-26.802 24.111-9.098 7.261-21.207 11.191-36.369 11.81-15.141 0.619-28.147-3.951-39.082-13.646-12.088-10.892-17.854-24.068-17.277-39.551 0.619-15.44 5.766-27.699 15.483-36.796 3.631-3.631 14.821-14.223 33.614-31.82 18.772-17.555 41.196-38.462 67.25-62.701 26.054-24.239 54.073-50.293 84.057-78.163 30.005-27.87 57.875-53.924 83.609-78.163 25.777-24.239 47.88-44.976 66.353-62.253s29.236-27.421 32.269-30.432c23-22.445 47.859-33.785 74.511-34.084 26.652-0.342 49.396 8.628 68.147 26.78 3.652 3.054 11.212 10.187 22.723 21.377s25.606 24.837 42.264 40.897c16.679 16.060 35.302 34.084 55.889 54.073 20.609 20.011 41.495 40.128 62.744 60.438 21.185 20.288 41.965 40.448 62.231 60.438 20.31 20.011 38.932 38.014 55.889 54.073 16.978 16.060 31.223 29.813 42.712 41.345l22.744 22.744zM456.549 371.831c15.141-13.924 33.337-21.356 54.543-22.274 21.207-0.897 40.299 6.535 57.256 22.274 1.837 1.815 7.282 6.962 16.38 15.462l34.533 31.799c13.326 12.728 28.318 26.973 44.976 42.712s33.785 31.521 51.34 47.261c40.576 37.565 86.043 79.679 136.337 126.321v172.685c0 13.348-4.997 25.157-14.992 35.451-10.016 10.294-23.492 15.761-40.47 16.359h-171.767v-140.864c0-20.011-9.375-29.984-28.147-29.984h-173.603c-10.294 0-17.427 3.033-21.356 9.098-3.951 6.044-5.916 13.006-5.916 20.908 0 3.631-0.128 12.878-0.448 27.72-0.32 14.821-0.448 30.753-0.448 47.709v65.414h-166.321c-17.555 0-31.5-3.93-41.794-11.81s-15.462-19.114-15.462-33.614v-180.886c49.674-45.446 94.821-86.641 135.419-123.609 16.978-15.718 33.935-31.329 50.891-46.791 16.978-15.44 32.418-29.535 46.364-42.264s25.585-23.492 35.003-32.269c9.354-8.777 15.27-14.394 17.683-16.807v0zM456.549 371.831z"  /></svg>